# xmcd
#
# Track frame offsets:
#	150
#	15024
#	30923
#	39663
#	52210
#	71869
#	85361
#	99442
#	113127
#	127789
#	137572
#	149612
#	162659
#	177827
#	193205
#	205401
#	219680
#	229335
#	242758
#	258955
#
# Disc length: 3684 seconds
#
# Revision: 1
# Processed by: cddbd v1.5.1PL2 Copyright (c) Steve Scherf et al.
# Submitted via: audiograbber 1.83.01
#
DISCID=250e6214
DTITLE=The Shepherds - St. Patrick's Miracle
DYEAR=1900
DGENRE=Celtic
TTITLE0=The Tongs by the Fire - Father O'Flynn - Off She Goes
TTITLE1=The Leaving of Liverpool
TTITLE2=The Kid on the Mountain
TTITLE3=The Star of the County Down
TTITLE4=Fiddler's Green
TTITLE5=I Know Where I'm Going
TTITLE6=Saint Anne's Reel - I'll Tell Me
TTITLE7=It's all for me Grog
TTITLE8=A Jug of Punch
TTITLE9=Claudine's Polka - O'Brian's Polka
TTITLE10=Golden Jubilee
TTITLE11=Humours of Whiskey
TTITLE12=The Rising of the Moon
TTITLE13=Na Lachan Sa Mhuta - Coorley's
TTITLE14=Whiskey In The Jar
TTITLE15=Miss Sharps Fancy - John Kelly's - Gabriel's Jig
TTITLE16=Beer, Beer, Beer
TTITLE17=The Boys of Malin
TTITLE18=The Wild Rover
TTITLE19=The Mermaid
EXTD=
EXTT0=
EXTT1=
EXTT2=
EXTT3=
EXTT4=
EXTT5=
EXTT6=
EXTT7=
EXTT8=
EXTT9=
EXTT10=
EXTT11=
EXTT12=
EXTT13=
EXTT14=
EXTT15=
EXTT16=
EXTT17=
EXTT18=
EXTT19=
PLAYORDER=
